<svg height="256" viewBox="0 0 256 256" width="256" xmlns="http://www.w3.org/2000/svg"><g fill="none" fill-rule="evenodd"><path d="m15.645276 80.5c54-54 162-54 216 0s-8.894846 96.728847-63.070572 150.904574c-54.175727 54.175727-40.79324-42.698087-73.6100816-75.080419-32.8168415-32.382332-133.3193464-21.824155-79.3193464-75.824155z" fill="#bdc8d2"/><path d="m184.359375 152.71875h-82.6875v-38.8125h95.34375c5.050266 0 8.061609-5.643844 5.265422-9.838547l-22.960125-34.4401874 22.942828-34.0558593c2.824875-4.1930157-.185203-9.8638594-5.248125-9.8638594h-83.921484c.794812-2.0912344 1.233984-4.3567031 1.233984-6.7234219 0-10.46798438-8.516391-18.984375-18.984375-18.984375-10.4679844 0-18.984375 8.51639062-18.984375 18.984375 0 8.2497656 5.2907344 15.2836875 12.65625 17.8959375v115.8384375h-57.375c-17.4466406 0-31.640625 14.193984-31.640625 31.640625s14.1939844 31.640625 31.640625 31.640625h152.71875c17.446641 0 31.640625-14.193984 31.640625-31.640625s-14.193984-31.640625-31.640625-31.640625zm.763172-114.3542812-18.667547 27.7091718c-1.433531 2.1279375-1.440281 4.9110469-.017297 7.0457344l18.753609 28.130625h-83.519437v-62.8855312zm-89.778797-25.7082188c3.4893281 0 6.328125 2.8387969 6.328125 6.328125s-2.8387969 6.328125-6.328125 6.328125-6.328125-2.8387969-6.328125-6.328125 2.8387969-6.328125 6.328125-6.328125zm89.015625 190.6875h-152.71875c-10.4679844 0-18.984375-8.516391-18.984375-18.984375s8.5163906-18.984375 18.984375-18.984375h57.375v12.65625h-6.328125c-3.4948125 0-6.328125 2.833313-6.328125 6.328125s2.8333125 6.328125 6.328125 6.328125h25.3125c3.494812 0 6.328125-2.833313 6.328125-6.328125s-2.833313-6.328125-6.328125-6.328125h-6.328125v-12.65625h82.6875c10.467984 0 18.984375 8.516391 18.984375 18.984375s-8.516391 18.984375-18.984375 18.984375z" fill="#000" fill-rule="nonzero" transform="translate(20 20)"/></g></svg>